<?xml version="1.0" encoding="utf-8"?>
<!-- Generator: Adobe Illustrator 23.0.1, SVG Export Plug-In . SVG Version: 6.00 Build 0)  -->
<svg width="942" heigh="70" version="1.1" id="レイヤー_1" xmlns="http://www.w3.org/2000/svg" xmlns:xlink="http://www.w3.org/1999/xlink" x="0px"
	 y="0px" viewBox="0 0 157.9 11.4" style="enable-background:new 0 0 157.9 11.4;" xml:space="preserve">
<g>
	<path d="M8.6,7.6c0.8,0.9,1.9,1.4,3.1,1.6v0.1c-0.6,0.2-1.1,0.8-1.1,1.5c-1-0.7-1.8-1.7-2.1-2.9V11c0,0.1-0.7,0.4-1.3,0.4H6.8V8.8
		c-0.9,0.9-2,1.5-3.2,1.9l-0.1-0.2c1.1-0.7,2-1.8,2.5-3H4.5L4.4,7.3h2.4V6.3c-0.1,0-0.3,0-0.4,0H6.1V5.8H5.6v0.4
		c0,0.1-0.4,0.3-1,0.3H4.4V6.3C4.1,6.5,3.7,6.6,3.4,6.3c0,0,0,0-0.1-0.1c0-0.3,0-0.5-0.1-0.8L3.1,5.6v1l0,0C5.8,8,4.4,10.1,3.4,9
		c0-0.7-0.1-1.4-0.3-2.1V11c-0.3,0.3-0.8,0.5-1.2,0.4H1.6V8.4c-0.3,0.8-0.8,1.6-1.4,2.2L0,10.4c0.4-1.2,0.6-2.4,0.6-3.6l1,0.2V6.2
		C1.3,6.3,1.1,6.4,0.8,6.5C0.8,6.6,0.7,6.7,0.5,6.7L0,5.2h1.2c0.2-0.4,0.5-0.9,0.7-1.4c-0.3,0.3-0.8,0.3-1.1,0c0,0,0,0,0,0
		c-0.1-0.7-0.3-1.4-0.6-2l0.1-0.1C0.6,1.8,0.8,1.9,1.1,2c0.1-0.5,0.3-1.3,0.4-2l2,0.6C3.4,0.8,3.2,0.9,3,0.9C2.5,1.4,2,1.8,1.4,2.2
		c0.4,0.2,0.7,0.6,0.7,1.1c0.2-0.6,0.5-1.1,0.6-1.7l1.9,0.7C4.6,2.4,4.5,2.5,4.2,2.5C3.8,3,3.4,3.5,3,4c0.5,0.2,1,0.5,1.4,1V3.2
		l1.3,0.5h0.4l0.5-0.5c-0.3,0.1-0.7,0.2-1,0.2H5.2V0.2L7,0.9h1.3L9,0l1.4,1c-0.1,0.1-0.2,0.2-0.4,0.2v1.6C9.5,3.1,9.1,3.2,8.6,3.1
		H8.3V2.8H6.8V3c0,0,0,0.1-0.1,0.1l1.1,0.8C7.7,4.1,7.6,4.1,7.4,4.1v2l0,0l0.5,0.1V3.1l1.4,0.5h0.4L10.3,3l1.2,0.9
		C11.4,4,11.2,4.1,11,4.1V6c-0.3,0.2-0.7,0.3-1.1,0.3H9.7V5.8H9.1v0.3c0,0-0.1,0.1-0.4,0.2c0,0.1-0.1,0.2-0.3,0.2v0.7h0.9l0.8-0.9
		c0,0,0.9,0.7,1.4,1.1c0,0.1-0.2,0.2-0.3,0.2H8.6z M3.2,5.1C3.1,4.7,3,4.4,2.8,4.1c-0.3,0.3-0.7,0.7-1.1,1H3.2z M6.1,5.4V4H5.6v1.4
		L6.1,5.4z M6.8,1.2v1.2h1.5V1.2H6.8z M9.1,4v1.4h0.6V4H9.1z"/>
	<path d="M18.1,0.4L18.1,0.4c0.3-0.1,0.7,0,1,0.1c0.7,0.3,1.3,0.9,1.3,1.4c0,0.3-0.1,0.6-0.2,0.9C20.1,3,20,3.3,20,3.6
		c0,0.2,0.1,0.2,0.2,0c0.7-1.2,1.4-1.8,2.2-1.8c1.3,0,2.4,1.1,2.4,3.9s-1.6,5-5.5,5.5l-0.1-0.2c2.4-0.7,4-3,3.8-5.6c0-2.2-0.4-3-1-3
		c-0.4,0-0.9,0.4-1.3,1.2c-0.3,0.7-0.5,1.4-0.5,2.2c0,0.6,0.1,1.1,0.1,1.7c0,0.4-0.3,0.7-0.7,0.7c0,0,0,0,0,0
		c-0.4,0-0.8-0.3-0.9-0.6c-0.2-0.4-0.3-0.9-0.2-1.4c0-1.1,0.5-2.9,0.5-3.8C18.9,1.7,18.7,0.9,18.1,0.4z"/>
	<path d="M34.6,8.7c0.8,0.8,1.6,0.9,3.9,0.9c1.3,0,3.1,0,4.7,0v0.1c-0.7,0.2-1.1,0.7-1.1,1.4h-3.5c-2.3,0-3.2-0.4-4-2.2
		c-0.6,0.8-1.2,1.5-1.8,2.2c0,0.1-0.1,0.3-0.2,0.3l-0.9-1.9C32,9.5,32.5,9.3,33,9.1V5.7h-1.4l-0.1-0.3h1.2l0.8-1l1.7,1.3
		c-0.2,0.2-0.4,0.3-0.6,0.3V8.7z M32.2,0.4c4,0.5,2.6,3.6,1,2.4C33,2,32.6,1.1,32.2,0.4L32.2,0.4z M34.8,8.8C35.6,7,36,5,35.9,3.1
		V0.5l2,0.7h2.5L41.2,0c0,0,1,0.8,1.6,1.2c0,0.1-0.2,0.2-0.3,0.2h-4.9v1.9h2.6L41,2.5l1.5,1.3C42.4,3.9,42.3,4,42,4
		c-0.2,0.8-0.6,1.5-1,2.1c2.2,1.5,1.4,3.3,0.1,2.7c-0.3-0.6-0.7-1.1-1.1-1.6c-1.1,0.9-2.4,1.5-3.8,1.8l-0.1-0.1
		c1.2-0.5,2.3-1.4,3-2.5c-0.5-0.5-1.1-1-1.7-1.4l0.1-0.1c0.7,0.1,1.4,0.3,2,0.6c0.3-0.5,0.4-1.1,0.6-1.7h-2.6
		C37.6,5.8,36.6,7.7,34.8,8.8L34.8,8.8z"/>
	<path d="M50.9,1.3c0.4-0.4,0.9-0.6,1.5-0.6c0.8,0,1.4,0.3,1.4,0.6c0.1,0.4,0.2,0.9,0.4,1.3c1.1-0.5,1.5-1,1.7-1
		c0.4-0.1,0.7,0,1,0.3c0.2,0.3,0.2,0.6,0,0.9c-0.6,0.5-1.3,0.9-2,1.1C55.5,4.7,56.2,5.4,57,6c0.2,0.2,0.4,0.5,0.4,0.8
		c0,0.5-0.2,1.3-0.8,1.3s-0.7-0.3-1.1-0.6c-0.8-0.6-1.8-0.9-2.8-0.9c-1.2,0-2,0.6-2,1.5c0,0.7,0.7,1.2,2.3,1.2
		c0.8,0,1.3-0.1,1.9-0.1s1.2,0.2,1.2,0.9s-0.7,0.9-2.6,0.9c-2.4,0-3.9-1-3.9-2.4S51,6,53,6c0.7,0,1.5,0.1,2.2,0.2
		c0.2,0,0.2,0,0.1-0.1c-0.5-0.6-1-1.2-1.5-1.8c-0.8,0.2-1.6,0.4-2.4,0.4c-1.7,0-2.1-0.6-2.6-2l0.2-0.1c0.6,0.6,1.3,0.8,2.1,0.8
		c0.7,0,1.3-0.2,2-0.4c-0.2-0.4-0.5-0.8-0.6-1S51.7,1.6,51,1.5L50.9,1.3z"/>
	<path d="M75.1,7.8c-0.4,1.2-1.5,2.1-2.7,2.2c-1,0-1.6-0.6-1.6-1.9s0.4-2.7,0.4-4.1c0-0.7-0.2-1.1-0.7-1.1c-1,0-2.2,0.9-3.1,2.1
		c-0.1,0.3-0.1,0.6-0.1,0.8c0,0.9,0,1.7,0.1,2.6c0.1,0.6,0.2,0.9,0.2,1.3c0,0.9-0.5,1.4-1,1.4c-0.4,0-0.7-0.2-0.8-0.6c0,0,0,0,0-0.1
		c-0.1-0.4-0.2-0.7-0.3-1.1c-0.1-0.2-0.2-0.5-0.3-0.7L65,8.9c-0.2,0.4-0.5,0.8-0.8,0.8s-0.6-0.3-0.6-0.8c0-0.4,0.1-0.7,0.4-1
		c0.9-0.9,1.7-1.9,2.4-3c0-0.2,0-0.3,0-0.5c-0.2,0.1-0.4,0.2-0.6,0.4c-0.2,0.2-0.4,0.6-0.7,0.6c-0.7-0.1-1.3-0.6-1.5-1.3
		c0-0.3,0-0.5,0-0.8h0.1c0.2,0.3,0.4,0.5,0.7,0.5c0.7-0.2,1.4-0.4,2-0.8c0.1-0.6,0.1-1.1,0.1-1.3c0-0.2-0.1-0.4-0.2-0.5
		c-0.2-0.2-0.5-0.3-0.8-0.4V0.7c0.4-0.2,0.8-0.3,1.2-0.3c0.8,0,1.7,0.8,1.7,1.3c0,0.3-0.2,0.6-0.3,0.8c0,0.1-0.1,0.2-0.2,0.4
		c0.2,0.1,0.3,0.3,0.4,0.5C69.1,2.8,70,2.3,71,2.2c1.3,0,1.8,0.8,1.8,2s-0.4,2.2-0.4,3.4c0,0.6,0.2,0.8,0.7,0.8c0.7,0,1.4-0.3,2-0.8
		L75.1,7.8z M66.2,8.5c0-0.3,0-0.9,0-1.5c-0.3,0.4-0.5,0.9-0.8,1.3l0.5,0.3C66.1,8.8,66.2,8.8,66.2,8.5z"/>
	<path d="M82.6,1.1c0.2,0.4,0.6,0.8,0.9,0.8c0.8-0.1,1.5-0.3,2.2-0.5C86.3,1.2,86.3,1,86.6,1c0.7,0,1.8,0.9,1.8,1.5
		c0,0.4-0.5,0.5-0.9,0.8c-1,0.6-1.9,1.3-2.7,2.1c-0.2,0.2-0.1,0.2,0.1,0.2c0.6-0.2,1.3-0.4,2-0.4c1.5-0.1,2.9,1,3,2.5
		c0,0.1,0,0.2,0,0.3c0,1.7-1.5,3-4.1,3c-1.4,0-2.5-0.6-2.5-1.8c0-0.9,0.8-1.4,1.7-1.4c1,0,1.9,0.6,2.2,1.6c0.8-0.3,1.2-1.1,1.2-1.9
		c0-1.1-0.7-1.8-2-1.8c-1.6,0-2.7,1.3-3.7,2.6c-0.3,0.4-0.5,0.6-0.8,0.6s-0.6-0.4-0.6-0.9c0.1-0.5,0.3-0.9,0.7-1.1
		c0.8-0.7,3.5-3.3,4.2-4.1c0.3-0.3,0.1-0.4-0.1-0.4c-0.5,0.2-1,0.4-1.5,0.8c-0.2,0.2-0.5,0.3-0.7,0.3c-0.8-0.1-1.3-0.7-1.4-1.4
		c0-0.3,0.1-0.6,0.1-0.8L82.6,1.1z M85.8,9.6c-0.2-0.7-0.6-1.3-1.2-1.3c-0.5,0-0.8,0.2-0.8,0.6s0.6,0.7,1.4,0.7
		C85.4,9.7,85.7,9.6,85.8,9.6z"/>
	<path d="M99.8,1.6c0,0,0.8,0.6,1.2,1c0,0.1-0.2,0.2-0.3,0.2H96l-0.1-0.3h3.2L99.8,1.6z M106.3,3.3c0,0,0.8,0.7,1.3,1.1
		c0,0.1-0.2,0.2-0.3,0.2h-2.5c-0.4,0.5-0.9,0.9-1.4,1.3h1.6l0.7-0.8l1.5,1.2c-0.1,0.1-0.3,0.2-0.5,0.2v4.3c-0.4,0.2-0.9,0.4-1.4,0.4
		H105v-0.8h-1.8v0.4c0,0.2-0.7,0.5-1.4,0.5h-0.2V7.3c-0.4,0.2-0.8,0.4-1.2,0.6v2.8c-0.4,0.3-0.8,0.4-1.2,0.4h-0.3v-0.9H98v0.7
		c0,0.1-0.6,0.5-1.3,0.5h-0.2V6.7L98,7.3h0.7l0.7-0.7l1.2,0.9c0.3-0.3,0.7-0.6,1-0.8V5.3l0.9,0.3c0.3-0.3,0.6-0.7,0.8-1h-3l-0.1-0.3
		h-3.6L96.5,4h2.1l0.7-0.9c0,0,0.7,0.6,1.2,1c0,0.1-0.1,0.1-0.1,0.2h1.8v-2h-1.2L100.8,2h1.3V0l2.1,0.2c0,0.2-0.1,0.3-0.4,0.3v1.3
		l0.6-1c0,0,0.3,0.4,0.7,0.7c0.2-0.4,0.4-0.8,0.5-1.2l1.9,1c-0.1,0.1-0.2,0.2-0.5,0.2c-0.6,1-1.2,2-2,2.8h0.6L106.3,3.3z M99.3,4.7
		c0,0,0.7,0.6,1.2,1c0,0.1-0.2,0.2-0.3,0.2h-3.5l-0.1-0.3h2.1L99.3,4.7z M96.7,1.3l-0.1-0.3h2L99.2,0c0,0,0.8,0.6,1.2,1.1
		c0,0.1-0.2,0.2-0.3,0.2L96.7,1.3z M98.8,9.9V7.6H98v2.3H98.8z M103.2,6.3v1.7h1.8V6.3H103.2z M105,10.1V8.4h-1.8v1.7H105z
		 M103.8,2.3v1.6c0.4-0.5,0.7-1.1,1-1.6L103.8,2.3z"/>
	<path d="M117.6,3.6c-0.1,0.1-0.2,0.2-0.5,0.2c-0.3,0.3-0.7,0.7-1.1,1.1l0.6,0.2c0,0.1-0.2,0.2-0.4,0.2V11c-0.4,0.3-0.9,0.4-1.4,0.4
		h-0.3V6.1c-0.6,0.4-1.2,0.8-1.8,1.1l-0.1-0.1c1.2-1.4,2.2-3,3-4.7L117.6,3.6z M117.3,1.2c-0.1,0.1-0.2,0.2-0.5,0.1
		c-1.2,1-2.4,1.7-3.8,2.2l-0.1-0.1c1-1,1.9-2.2,2.5-3.5L117.3,1.2z M122.6,2.9c0,0,1,0.8,1.5,1.3c0,0.1-0.2,0.2-0.3,0.2h-1.6v4.9
		c0,1.1-0.3,1.9-2.4,2c0-0.4-0.1-0.9-0.4-1.2c-0.4-0.3-0.9-0.5-1.4-0.5V9.4c0,0,1.8,0.1,2.2,0.1c0.2,0,0.3-0.1,0.3-0.2V4.4h-3.3
		L117.1,4h4.7L122.6,2.9z M117.9,1.6l-0.1-0.3h3.7l0.8-1.1c0,0,0.9,0.7,1.5,1.2c0,0.1-0.2,0.2-0.3,0.2H117.9z"/>
	<path d="M139.9,6.5c0,0,0.8,0.8,1.3,1.3c0,0.1-0.2,0.2-0.3,0.2h-10.9l-0.1-0.3h1.6V5.2h-1.7l-0.1-0.3h1.8V3.5
		c-0.5,0.4-1,0.7-1.5,0.9l-0.1-0.1c1-1.3,1.7-2.8,2.2-4.3l2.3,0.8c0,0.1-0.2,0.2-0.5,0.2c-0.2,0.3-0.5,0.7-0.8,1h5.4l0.8-1.1
		c0,0,0.9,0.8,1.5,1.3c0,0.1-0.2,0.2-0.3,0.2h-1.2v2.5l0.8-1.1c0,0,0.9,0.7,1.3,1.2c0,0.1-0.1,0.2-0.3,0.2h-1.8v2.5l0,0L139.9,6.5z
		 M132.1,8.3c0.5,1.6-0.1,2.7-0.9,3c-0.4,0.2-1,0.1-1.3-0.4c0,0,0-0.1-0.1-0.1c-0.1-0.5,0.2-0.9,0.6-1.1c0.7-0.2,1.2-0.8,1.4-1.5
		L132.1,8.3z M132.9,4.9h0.6V2.4h-0.6V4.9z M132.9,7.7h0.6V5.2h-0.6V7.7z M133.4,8.4c2.8,1.5,1.1,3.8,0,2.5c0.1-0.8,0.1-1.6-0.1-2.4
		L133.4,8.4z M134.9,2.4v2.5h0.6V2.4L134.9,2.4z M135.5,5.2h-0.6v2.5h0.6V5.2z M135.5,8.4c3.5,1,2.1,3.8,0.7,2.6
		C136.2,10.1,135.9,9.3,135.5,8.4L135.5,8.4z M137,2.4v2.4h0.6V2.4L137,2.4z M137.6,5.2H137v2.5h0.6L137.6,5.2z M137.7,8.3
		c4.5,0.6,3.4,3.9,1.8,2.9C139.1,10.2,138.5,9.2,137.7,8.3L137.7,8.3z"/>
	<path d="M157.9,2.9c-0.1,0.1-0.3,0.2-0.5,0.2c-0.6,0.3-1.2,0.6-1.8,0.8l0.3,0.2c-0.1,0.1-0.3,0.2-0.4,0.2V6
		c-0.4,0.2-0.9,0.3-1.4,0.3h-0.3V5.9h-0.8v1.2h1.7l0.7-0.8l1.6,1.2c-0.1,0.1-0.3,0.2-0.5,0.3v1.5c0,1-0.2,1.6-1.9,1.7
		c0-0.4,0-0.8-0.2-1.1c-0.2-0.3-0.4-0.5-0.7-0.5V9.2c0,0,0.7,0.1,0.9,0.1s0.2-0.1,0.2-0.2V7.4h-1.8v3.4c-0.3,0.4-0.8,0.6-1.4,0.6
		h-0.3v-4h-1.7v3c0,0.1-0.8,0.5-1.4,0.5h-0.2V6.4l1.8,0.7h1.6V5.9h-0.7v0.2c0,0.2-0.8,0.5-1.4,0.5h-0.2V3.1l1.7,0.7h3l0.7-0.8
		l1.1,0.8c0.1-0.3,0.1-0.7,0.1-1.1h-7.1c0.2,0.7-0.1,1.4-0.7,1.7c-0.4,0.2-1,0.1-1.2-0.4c0-0.1-0.1-0.1-0.1-0.2
		c-0.1-0.5,0.2-1,0.7-1.1c0.5-0.2,0.8-0.7,0.8-1.3h0.1c0.1,0.3,0.2,0.5,0.3,0.8h2.8V0l2.1,0.2c0,0.1-0.1,0.2-0.4,0.3v1.9h0.5
		c0.2-0.7,0.4-1.5,0.6-2.2l2.3,0.7c-0.1,0.1-0.2,0.2-0.5,0.2c-0.6,0.5-1.3,0.9-2,1.3h1.6l0.9-0.9L157.9,2.9z M148.5,0.2
		c3.5,0.3,2,3,0.6,1.9C149.1,1.4,148.8,0.8,148.5,0.2L148.5,0.2z M153.7,5.6V4.1h-3.2v1.5H153.7z"/>
</g>
</svg>
