<svg id="ebbfc913-4918-4a04-b282-99bf42862dac" data-name="レイヤー 1" xmlns="http://www.w3.org/2000/svg" viewBox="0 0 24 24"><title>icon_twitter</title><path d="M24,4.6a9,9,0,0,1-2.8.8,5.32,5.32,0,0,0,2.2-2.7,9.08,9.08,0,0,1-3.1,1.2,4.84,4.84,0,0,0-3.6-1.6,4.92,4.92,0,0,0-4.8,6A13.81,13.81,0,0,1,1.7,3.1,4.9,4.9,0,0,0,3.2,9.7,4,4,0,0,1,1,9.1,4.92,4.92,0,0,0,4.9,14a5.45,5.45,0,0,1-2.2.1,4.74,4.74,0,0,0,4.6,3.4,10.09,10.09,0,0,1-7.3,2A14,14,0,0,0,21.5,7.1,11.85,11.85,0,0,0,24,4.6Z" style="fill:#707070"/></svg>