<svg id="ac7e7d6e-6a2c-4711-8e99-ffadf72b94cd" data-name="レイヤー 1" xmlns="http://www.w3.org/2000/svg" viewBox="0 0 24 24"><title>ベクトルスマートオブジェクト3</title><path d="M12,2.2c3.2,0,3.6,0,4.9.1,3.3.1,4.8,1.7,4.9,4.9.1,1.3.1,1.6.1,4.8s0,3.6-.1,4.8c-.1,3.2-1.7,4.8-4.9,4.9-1.3.1-1.6.1-4.9.1s-3.6,0-4.8-.1c-3.3-.1-4.8-1.7-4.9-4.9-.1-1.3-.1-1.6-.1-4.8s0-3.6.1-4.8C2.4,4,4,2.4,7.2,2.3,8.4,2.2,8.8,2.2,12,2.2ZM12,0C8.7,0,8.3,0,7.1.1,2.7.3.3,2.7.1,7.1,0,8.3,0,8.7,0,12s0,3.7.1,4.9c.2,4.4,2.6,6.8,7,7,1.2.1,1.6.1,4.9.1s3.7,0,4.9-.1c4.4-.2,6.8-2.6,7-7,.1-1.2.1-1.6.1-4.9s0-3.7-.1-4.9c-.2-4.4-2.6-6.8-7-7C15.7,0,15.3,0,12,0Zm0,5.8A6.2,6.2,0,1,0,18.2,12,6.23,6.23,0,0,0,12,5.8ZM12,16a4,4,0,1,1,4-4A4,4,0,0,1,12,16ZM18.4,4.2A1.37,1.37,0,0,0,17,5.6a1.4,1.4,0,0,0,2.8,0A1.37,1.37,0,0,0,18.4,4.2Z" style="fill:#707070"/></svg>