<svg height="100.63" viewBox="0 0 306.41 100.63" width="306.41" xmlns="http://www.w3.org/2000/svg"><g fill="#fff" fill-rule="evenodd" transform="translate(-972.75 -8162.81)"><path d="m1008.49 8171.48c-3.76-5.83-9.05-8.67-17.491-8.67-12.124 0-17.111 6.68-17.111 14.27 0 9.21 6.445 13.97 16.421 15.5s12.511 4.91 12.511 9.9c0 4.53-2.54 8.52-11.207 8.52-6.906 0-9.975-2.38-13.428-6.45l-5.448 3.76c3.99 5.76 10.282 8.67 18.876 8.67 13.2 0 17.807-7.9 17.807-14.81 0-9.82-6.22-13.5-16.426-15.27-7.75-1.38-12.507-3.53-12.507-9.82 0-5.52 4.143-8.29 10.282-8.29 6.676 0 9.741 2.69 12.581 6.37zm32.32-8.06h-6.6v52.95h6.6v-24.4h22.71v24.4h6.6v-52.95h-6.6v22.56h-22.71zm68.92 0h-6.6v52.95h6.6zm26.86 0v5.99h16.11v46.96h6.6v-46.96h16.12v-5.99zm100.61 29.39v-5.83c0-17.11-7.44-24.17-19.19-24.17s-19.18 7.06-19.18 24.17v5.83c0 17.11 7.44 24.17 19.18 24.17s19.19-7.06 19.19-24.17zm-31.77-5.83c0-13.12 4.45-18.19 12.58-18.19s12.59 5.07 12.59 18.19v5.83c0 13.12-4.45 18.19-12.59 18.19s-12.58-5.07-12.58-18.19zm68.69-23.56h-6.6v52.95h6.6z"/><path d="m1065.53 8242.72a.289.289 0 0 0 -.18.22.257.257 0 0 0 .11.2 12.383 12.383 0 0 1 1 1.12h-2.08a7.253 7.253 0 0 1 .02-1.43 1.115 1.115 0 0 0 .11-.39.287.287 0 0 0 -.33-.24c-.63-.06-1.43-.13-2.19-.15.13.63.18 1.43.26 2.21h-6.48c-2.08 0-2.8-.04-2.93-.04-.24 0-.26.02-.26.22 0 .13.04.84.04 2.36a20.082 20.082 0 0 1 -.41 4.62 8.3 8.3 0 0 1 -1.56 3.45 5.43 5.43 0 0 1 1.39.93 1.121 1.121 0 0 0 .45.33.625.625 0 0 0 .39-.44 12.052 12.052 0 0 0 1.46-3.79 25.99 25.99 0 0 0 .39-4.36v-1.45h7.72a20.728 20.728 0 0 0 1.54 5.98 10.743 10.743 0 0 1 -2.39 1.93c0-.19-.02-.54-.02-1.19v-1.43c0-.91.04-1.26.04-1.39 0-.22-.02-.24-.23-.24-.16 0-.57.04-1.85.04h-2.04c-1.28 0-1.69-.04-1.84-.04-.22 0-.24.02-.24.24 0 .15.04.48.04 1.39v1.43c0 .91-.04 1.23-.04 1.39 0 .21.02.24.24.24.15 0 .56-.05 1.84-.05h2.04c1.28 0 1.69.05 1.85.05s.21 0 .23-.11a6.56 6.56 0 0 1 .72.69.878.878 0 0 0 .48.41 1.389 1.389 0 0 0 .52-.28 12.74 12.74 0 0 0 1.65-1.43 4.119 4.119 0 0 0 3.05 1.99c1.24 0 1.96-.8 2.5-2.62a2.31 2.31 0 0 0 .11-.48c0-.21-.15-.3-.57-.5a4.456 4.456 0 0 1 -1.08-.71c-.26 1.47-.48 2.08-1.02 2.08a2.652 2.652 0 0 1 -1.61-1.37 18.244 18.244 0 0 0 1.91-3.23 2.713 2.713 0 0 1 .44-.65.458.458 0 0 0 .19-.32.406.406 0 0 0 -.26-.31 12.517 12.517 0 0 0 -1.76-.67 9.145 9.145 0 0 1 -.41 1.35 13.44 13.44 0 0 1 -1.04 1.9 18.026 18.026 0 0 1 -.91-4.09h2.13c2.06 0 2.77.04 2.9.04.22 0 .24-.02.24-.24v-1.45c0-.2-.02-.22-.24-.22-.11 0-.58.04-1.84.04l.5-.32c.19-.15.26-.22.11-.41a9.237 9.237 0 0 0 -1.35-1.41.306.306 0 0 0 -.45-.03zm-5.73 10.15h-2.58v-1.58h2.58zm-1.6 4.38a1.8 1.8 0 0 1 .13-.78.73.73 0 0 0 .11-.36c0-.09-.13-.16-.39-.2a16.343 16.343 0 0 0 -2.15-.13 8.426 8.426 0 0 1 .11 1.65v1.91c0 1.15.3 1.6.8 1.88a9.467 9.467 0 0 0 3.75.44c2.26 0 3.45-.09 4.25-.52a2.622 2.622 0 0 0 1.2-2.13c.06-.58.06-.58-.5-.76a5.347 5.347 0 0 1 -1.56-.65c-.03 1.04-.2 1.67-.57 1.87-.45.26-1.06.24-2.64.24a7.149 7.149 0 0 1 -2.2-.2.887.887 0 0 1 -.34-.87zm-.67-10.15c-1.28 0-1.8-.04-1.94-.04-.21 0-.23.02-.23.26v1.26c0 .22.02.24.23.24.14 0 .66-.05 1.94-.05h2.21c1.3 0 1.82.05 1.95.05.19 0 .22-.02.22-.24v-1.26c0-.24-.03-.26-.22-.26-.13 0-.65.04-1.95.04zm8.5 9.5c-.26.16-.28.22-.11.39a13.385 13.385 0 0 1 2.32 3.76c.09.21.15.19.43.02l1.35-.83c.28-.17.28-.21.17-.43a16.8 16.8 0 0 0 -2.56-3.62.28.28 0 0 0 -.19-.13.624.624 0 0 0 -.26.11zm-13.51 4.49c.23.13.3.13.43-.04a15.92 15.92 0 0 0 2.21-3.9c.07-.22.04-.26-.24-.39l-1.28-.57c-.3-.13-.34-.13-.43.11a12.556 12.556 0 0 1 -2.19 3.62c-.13.18-.13.26.13.41zm7-5.4c-.26.2-.26.22-.09.39a14.246 14.246 0 0 1 1.89 2.26.226.226 0 0 0 .17.15.492.492 0 0 0 .29-.15l1.12-.87c.22-.15.2-.19.07-.35a12.168 12.168 0 0 0 -2.04-2.14c-.17-.13-.24-.13-.46.02zm43.36 1.3c1.82 0 2.49.05 2.64.05.22 0 .24-.02.24-.24 0-.13-.04-.78-.04-2.21v-4.23c0-1.48.04-2.08.04-2.21 0-.22-.02-.24-.24-.24-.15 0-.84.04-2.88.04h-5.68c-2.04 0-2.74-.04-2.89-.04-.22 0-.24.02-.24.24 0 .15.05.73.05 2.21v4.23c0 1.43-.05 2.06-.05 2.21 0 .22.02.24.24.24.13 0 .72-.02 2.26-.05-.65 2.13-3.21 2.76-6.55 3a4.624 4.624 0 0 1 .91 1.45c.28.65.28.63.93.54 3.69-.5 6.38-1.86 7.11-4.99h1.87v2.82c0 .98.17 1.33.65 1.57a10.236 10.236 0 0 0 3.54.34c2.27 0 3.16-.17 3.81-.63.5-.34.74-.86.91-2.17.07-.56.07-.54-.47-.71a6.5 6.5 0 0 1 -1.63-.69c-.04 1.3-.13 1.73-.48 1.97a3.533 3.533 0 0 1 -1.99.32 5 5 0 0 1 -1.85-.19.477.477 0 0 1 -.21-.52zm.63-1.56h-7.42v-1.06h7.42zm-7.42-5.94h7.42v1.06h-7.42zm0 3.49v-1.04h7.42v1.04zm9.35-8 .71-1.13a2.665 2.665 0 0 1 .46-.58.409.409 0 0 0 .19-.33.337.337 0 0 0 -.28-.3 15.845 15.845 0 0 0 -2.12-.55 5.384 5.384 0 0 1 -.35 1.09 19.262 19.262 0 0 1 -.93 1.8h-3.52l1.33-.39c.3-.09.32-.11.23-.3a12.2 12.2 0 0 0 -1.04-2.11.278.278 0 0 0 -.43-.15l-1.43.43c-.26.09-.33.11-.2.33a14.111 14.111 0 0 1 1.02 2.19h-4.08l1.15-.41c.31-.09.31-.11.2-.33a13.187 13.187 0 0 0 -1.26-1.89c-.13-.15-.19-.19-.48-.08l-1.3.45c-.26.09-.28.13-.15.33a11.187 11.187 0 0 1 1.15 1.93h-.5c-1.99 0-2.71-.04-2.86-.04-.22 0-.24.02-.24.23 0 .16.04.55.04 1.33v.76c0 1.82-.04 2.17-.04 2.3 0 .23.02.26.24.26h1.73c.22 0 .24-.03.24-.26v-2.72h13.73v2.76c0 .22.02.24.24.24h1.73c.22 0 .24-.02.24-.24 0-.13-.04-.48-.04-2.32v-.96c0-.6.04-1.02.04-1.15 0-.21-.02-.23-.24-.23-.15 0-.86.04-2.86.04zm29.81 5.54c0 2.06.42 2.6 1.38 2.82a14.477 14.477 0 0 0 -3.15 2.44 3.784 3.784 0 0 0 -1.08 2.55c0 2.16 1.92 3.42 5.73 3.42a32.244 32.244 0 0 0 3.84-.16c1-.12 1.4-.38 1.4-1.14 0-.66-1.16-1.4-2.48-1.4a11.855 11.855 0 0 1 -1.96.42 20.95 20.95 0 0 1 -2.5.14c-2.23 0-3.13-.56-3.13-1.48a2.411 2.411 0 0 1 1.36-1.97 21.67 21.67 0 0 1 5.65-2.54c.66-.2 1.24-.36 1.58-.42a.645.645 0 0 0 .68-.68 1.987 1.987 0 0 0 -.92-1.46 2.557 2.557 0 0 0 -1.74-.84 1.375 1.375 0 0 0 -.44.06.11.11 0 0 0 -.1.08c0 .04 0 .04.1.12a1.1 1.1 0 0 1 .42.72.669.669 0 0 1 -.38.5c-.54.3-.98.54-1.56.86a.689.689 0 0 1 -.18.02c-.36 0-.56-.22-.56-.96 0-.66 0-1.28.06-2.62a2.477 2.477 0 0 1 .26-1.07.976.976 0 0 0 .14-.48 1.334 1.334 0 0 0 -.68-1.02 2.062 2.062 0 0 0 -1.38-.68 3.412 3.412 0 0 0 -1.57.64.12.12 0 0 0 -.06.12.149.149 0 0 0 .14.12 1.1 1.1 0 0 1 .92.5 3.878 3.878 0 0 1 .21 1.83zm44.84-1.31a3.686 3.686 0 0 1 1-.74.386.386 0 0 0 .32-.28.443.443 0 0 0 -.19-.37 14.677 14.677 0 0 0 -1.59-1.11h1.63c1.73 0 2.32.05 2.43.05.21 0 .24-.02.24-.24v-1.58c0-.22-.03-.24-.24-.24-.11 0-.7.04-2.43.04h-4.64l.37-1.02a1.648 1.648 0 0 1 .41-.78.484.484 0 0 0 .17-.33.434.434 0 0 0 -.39-.3c-.63-.13-1.26-.26-2.02-.37a5.292 5.292 0 0 1 -.26 1.37 11.207 11.207 0 0 1 -3.1 5.07 5.051 5.051 0 0 1 1.22.85 1.062 1.062 0 0 0 .52.37.8.8 0 0 0 .47-.39 13.443 13.443 0 0 0 1.67-2.5h3.84a6.1 6.1 0 0 1 -.93 1.13 19.748 19.748 0 0 1 -6.44 3.91c.02-.76.02-1.35.06-1.93 0-.22-.04-.26-.26-.26-.13 0-.36.04-1.3.04h-2.38c.04-.74.04-1.54.06-2.37h1.8c1.74 0 2.3.05 2.43.05.22 0 .24-.02.24-.26v-1.56c0-.22-.02-.24-.24-.24-.13 0-.69.04-2.43.04h-.26v-1.11a3.657 3.657 0 0 1 .13-1.34.861.861 0 0 0 .13-.41c0-.13-.15-.2-.37-.22-.8-.09-1.47-.11-2.27-.13a9.4 9.4 0 0 1 .15 2.1v1.11h-.76c-1.71 0-2.28-.04-2.41-.04-.22 0-.24.02-.24.24v1.56c0 .24.02.26.24.26.11 0 .57-.02 1.8-.05-.06 5.62-.26 9.42-2.47 12.52a4.6 4.6 0 0 1 1.21 1.39.515.515 0 0 0 .37.34.56.56 0 0 0 .39-.36c1.54-2.56 2.15-5.54 2.41-9.55h1.93a43.243 43.243 0 0 1 -.32 6.55c-.2 1-.33 1.24-.96 1.24a6.8 6.8 0 0 1 -1.47-.15 5.487 5.487 0 0 1 .49 1.65c.07.54.11.58.46.6.43.02.65.02.98.02a2.13 2.13 0 0 0 2.25-1.69c.39-1.23.59-2.95.61-7.63v-.24a3.638 3.638 0 0 1 .67 1.13c.13.41.2.56.37.56a1.283 1.283 0 0 0 .5-.15l1.06-.52v5.96c0 1.76-.04 2.58-.04 2.71 0 .22.02.24.24.24h1.8c.21 0 .24-.02.24-.24 0-.1-.05-.95-.05-2.71v-7.26l.87-.59c.63 4.12 1.8 7.27 4.66 10.13a.78.78 0 0 0 .37.26.544.544 0 0 0 .31-.41 4.488 4.488 0 0 1 1.06-1.67 11.62 11.62 0 0 1 -3.54-4.71 21.684 21.684 0 0 0 2.11-1.71 2.6 2.6 0 0 1 .8-.57.355.355 0 0 0 .3-.32.486.486 0 0 0 -.17-.37 8.931 8.931 0 0 0 -1.39-1.24 7.061 7.061 0 0 1 -.78.96 14.711 14.711 0 0 1 -1.52 1.32 23.761 23.761 0 0 1 -.54-2.97zm34.39 1.19a21.772 21.772 0 0 1 2.29-.14 10.566 10.566 0 0 1 2.36.28 5.177 5.177 0 0 0 1 .14.633.633 0 0 0 .74-.58 1.2 1.2 0 0 0 -.78-1.14 3.955 3.955 0 0 0 -1.88-.69 1.191 1.191 0 0 0 -.56.2 2.17 2.17 0 0 1 -.82.18c-.74.06-1.4.14-2.31.25a2.942 2.942 0 0 1 .26-1.67.81.81 0 0 0 .19-.56c0-.3-.11-.56-.87-1a2.673 2.673 0 0 0 -1.26-.5 2.555 2.555 0 0 0 -1.4.66.218.218 0 0 0 -.12.18c0 .08.08.14.24.14a1.388 1.388 0 0 1 .76.2 1.338 1.338 0 0 1 .3 1.14c.02.5.04 1.06.06 1.65-1.78.24-3.8.56-5.74.9a8 8 0 0 1 -1.41.16 2.349 2.349 0 0 1 -1.38-.44.129.129 0 0 0 -.1-.04c-.04 0-.08.06-.08.28 0 .62.08.78.88 1.62a1.833 1.833 0 0 0 1.27.74 1.309 1.309 0 0 0 .66-.2 5.775 5.775 0 0 1 .94-.4 32.357 32.357 0 0 1 4.98-1.12c0 .64.02 1.28.02 1.94a4.243 4.243 0 0 0 -2.1.64 2.013 2.013 0 0 0 -.94 1.64 3.222 3.222 0 0 0 .56 1.84 5.944 5.944 0 0 0 1.76 1.71 8.79 8.79 0 0 1 -4.64 4.14.112.112 0 0 0 -.08.12.1.1 0 0 0 .12.08c2.7-.5 4.8-1.44 6.24-3.22a5.992 5.992 0 0 0 1.24-3.79 8.648 8.648 0 0 0 -.4-2.44zm-2.42 6a2.333 2.333 0 0 1 -1.4-.54 1.241 1.241 0 0 1 -.52-.98 1.061 1.061 0 0 1 .4-.74 2.03 2.03 0 0 1 1.18-.4c.48 0 .96.32.96 1.42a2.971 2.971 0 0 1 -.18.94.4.4 0 0 1 -.44.3zm33.02-2.12c1.42-1.64 2.4-2.8 3.6-4.16a8.805 8.805 0 0 1 1.52-1.47.785.785 0 0 0 .46-.66 2.572 2.572 0 0 0 -1-1.36 1.347 1.347 0 0 0 -.92-.48 1.567 1.567 0 0 0 -.86.44 12.968 12.968 0 0 1 -3.95 1.32 1.485 1.485 0 0 1 -1.22-.6.174.174 0 0 0 -.14-.1c-.06 0-.08.04-.1.12a4.561 4.561 0 0 0 -.1.8 1.66 1.66 0 0 0 .48 1.13 1.454 1.454 0 0 0 .98.78 1.056 1.056 0 0 0 .69-.22 22.139 22.139 0 0 1 2.92-1.53.509.509 0 0 1 .14-.04.053.053 0 0 1 .06.06.62.62 0 0 1 -.1.22c-.46.71-1.54 2.21-2.58 3.49-1.15 1.42-2.43 2.9-3.37 3.84a1.9 1.9 0 0 0 -.86 1.54 1.222 1.222 0 0 0 1.02 1.31 1.41 1.41 0 0 0 1.22-.92 9.8 9.8 0 0 1 2.65-2.79 4.844 4.844 0 0 1 2.5-.86c1.74 0 2.96.96 2.96 2.44a3.633 3.633 0 0 1 -1.84 3.37 3.385 3.385 0 0 0 -3.12-1.9 2.12 2.12 0 0 0 -2.33 1.86c0 1.26 1.31 2.22 3.47 2.22 3.24 0 6.23-2.14 6.23-4.89 0-2.62-2.35-4.02-4.95-4.02a6.016 6.016 0 0 0 -3.44 1.1zm2.38 6.33a3.751 3.751 0 0 1 -1.3.18c-.82 0-1.7-.46-1.7-1.08a.8.8 0 0 1 .98-.8 2.4 2.4 0 0 1 2.02 1.7zm28.79-2.95a2.885 2.885 0 1 0 2.9 2.89 2.9 2.9 0 0 0 -2.9-2.89zm0 1.23a1.66 1.66 0 1 1 -1.66 1.66 1.631 1.631 0 0 1 1.66-1.66z"/></g></svg>